<?xml version="1.0" encoding="UTF-8"?>
<svg width="75px" height="67px" viewBox="0 0 75 67" version="1.1" xmlns="http://www.w3.org/2000/svg" xmlns:xlink="http://www.w3.org/1999/xlink">
    <!-- Generator: Sketch 40.2 (33826) - http://www.bohemiancoding.com/sketch -->
    <title>Group 3</title>
    <desc>Created with Sketch.</desc>
    <defs>
        <rect id="path-1" x="0" y="0" width="75" height="67"></rect>
        <mask id="mask-2" maskContentUnits="userSpaceOnUse" maskUnits="objectBoundingBox" x="0" y="0" width="75" height="67" fill="white">
            <use xlink:href="#path-1"></use>
        </mask>
    </defs>
    <g id="Page-1" stroke="none" stroke-width="1" fill="none" fill-rule="evenodd">
        <g id="Desktop-HD" transform="translate(-76.000000, -36.000000)">
            <g id="Group-3" transform="translate(76.000000, 36.000000)">
                <use id="Rectangle-4" stroke="#0B24FB" mask="url(#mask-2)" stroke-width="12" xlink:href="#path-1"></use>
                <path d="M44.7935857,22.6757081 C43.8745622,21.0804221 42.998902,20.0400338 42.1665789,19.5545119 C41.2995756,18.9996298 40.1811582,18.722193 38.811293,18.722193 C37.1293067,18.722193 35.7334523,19.1990376 34.6236882,20.1527412 C33.513924,21.0891047 32.9590502,22.2682115 32.9590502,23.6900969 C32.9590502,25.6495242 34.4155939,27.2274465 37.3287248,28.423911 L41.3342599,30.062539 C44.5941922,31.380384 46.9784154,32.9886509 48.4870011,34.8873881 C49.9955868,36.7861252 50.7498683,39.1139941 50.7498683,41.8710645 C50.7498683,45.5644984 49.5187422,48.6163041 47.0564529,51.0265732 C44.5768235,53.4541824 41.4990081,54.6679688 37.8229142,54.6679688 C34.3375611,54.6679688 31.4591534,53.6362503 29.1876048,51.5727826 C26.9507364,49.5093148 25.5548821,46.6048974 25,42.8594433 L31.1383525,41.5069249 C31.4157935,43.8651738 31.901308,45.4951155 32.5949107,46.3967989 C33.8433954,48.1308055 35.6640749,48.9977957 38.0570039,48.9977957 C39.9470711,48.9977957 41.5163234,48.3648928 42.7648081,47.0990681 C44.0132929,45.8332433 44.6375258,44.2293113 44.6375258,42.287224 C44.6375258,41.506921 44.5291521,40.7916541 44.3124012,40.1414016 C44.0956504,39.4911492 43.7575242,38.8929259 43.2980125,38.3467138 C42.8385008,37.8005018 42.2446124,37.2889775 41.5163297,36.8121257 C40.7880469,36.3352739 39.9210567,35.880104 38.9153329,35.4466024 L35.0398477,33.8339844 C29.5430469,31.5104156 26.7946878,28.1118138 26.7946878,23.6380769 C26.7946878,20.6209055 27.9477848,18.0979639 30.2540135,16.0691762 C32.5602422,14.0230485 35.42998,13 38.8633129,13 C43.4931104,13 47.1084598,15.2541747 49.7094696,19.7625917 L44.7935857,22.6757081 Z" id="S" fill="#0000FF"></path>
            </g>
        </g>
    </g>
</svg>